<svg xmlns="http://www.w3.org/2000/svg" viewBox="0 0 900 300" fill="none">
  <defs>
    <linearGradient id="bg" x1="0" y1="0" x2="900" y2="300" gradientUnits="userSpaceOnUse">
      <stop offset="0%" stop-color="#0f0a07"/>
      <stop offset="30%" stop-color="#1e140d"/>
      <stop offset="70%" stop-color="#1e140d"/>
      <stop offset="100%" stop-color="#0f0a07"/>
    </linearGradient>
    <linearGradient id="gold" x1="0" y1="0" x2="1" y2="1">
      <stop offset="0%" stop-color="#9e6b3a"/>
      <stop offset="40%" stop-color="#d4a05a"/>
      <stop offset="60%" stop-color="#e8bf7e"/>
      <stop offset="100%" stop-color="#9e6b3a"/>
    </linearGradient>
    <linearGradient id="goldV" x1="0" y1="0" x2="0" y2="1">
      <stop offset="0%" stop-color="#d4a05a"/>
      <stop offset="100%" stop-color="#9e6b3a"/>
    </linearGradient>
    <radialGradient id="glow" cx="450" cy="130" r="280" gradientUnits="userSpaceOnUse">
      <stop offset="0%" stop-color="#d4a05a" stop-opacity="0.06"/>
      <stop offset="100%" stop-color="#d4a05a" stop-opacity="0"/>
    </radialGradient>
    <pattern id="noise" x="0" y="0" width="200" height="200" patternUnits="userSpaceOnUse">
      <circle cx="23" cy="17" r="0.5" fill="#d4a05a" opacity="0.04"/>
      <circle cx="67" cy="43" r="0.4" fill="#d4a05a" opacity="0.03"/>
      <circle cx="112" cy="8" r="0.6" fill="#d4a05a" opacity="0.03"/>
      <circle cx="156" cy="61" r="0.3" fill="#d4a05a" opacity="0.05"/>
      <circle cx="34" cy="89" r="0.5" fill="#d4a05a" opacity="0.03"/>
      <circle cx="89" cy="72" r="0.4" fill="#d4a05a" opacity="0.04"/>
      <circle cx="145" cy="97" r="0.5" fill="#d4a05a" opacity="0.03"/>
      <circle cx="178" cy="134" r="0.4" fill="#d4a05a" opacity="0.04"/>
      <circle cx="12" cy="156" r="0.6" fill="#d4a05a" opacity="0.03"/>
      <circle cx="56" cy="178" r="0.3" fill="#d4a05a" opacity="0.05"/>
      <circle cx="101" cy="145" r="0.5" fill="#d4a05a" opacity="0.03"/>
      <circle cx="190" cy="167" r="0.4" fill="#d4a05a" opacity="0.04"/>
    </pattern>
    <clipPath id="bannerClip"><rect width="900" height="300" rx="8"/></clipPath>
  </defs>

  <!-- Background -->
  <g clip-path="url(#bannerClip)">
    <rect width="900" height="300" fill="url(#bg)"/>
    <rect width="900" height="300" fill="url(#noise)"/>
    <rect width="900" height="300" fill="url(#glow)"/>

    <!-- Greek meander border top -->
    <g opacity="0.18" stroke="#d4a05a" stroke-width="1.2" fill="none">
      <path d="M0,16 L900,16"/>
      <path d="M0,28 L900,28"/>
      <!-- Meander keys -->
      <g transform="translate(20,16)">
        <path d="M0,0 L0,12 L8,12 L8,4 L4,4 L4,8 L0,8" />
        <path d="M16,0 L16,12 L24,12 L24,4 L20,4 L20,8 L16,8" />
        <path d="M32,0 L32,12 L40,12 L40,4 L36,4 L36,8 L32,8" />
        <path d="M48,0 L48,12 L56,12 L56,4 L52,4 L52,8 L48,8" />
        <path d="M64,0 L64,12 L72,12 L72,4 L68,4 L68,8 L64,8" />
      </g>
      <g transform="translate(780,16) scale(-1,1)">
        <path d="M0,0 L0,12 L8,12 L8,4 L4,4 L4,8 L0,8" />
        <path d="M16,0 L16,12 L24,12 L24,4 L20,4 L20,8 L16,8" />
        <path d="M32,0 L32,12 L40,12 L40,4 L36,4 L36,8 L32,8" />
        <path d="M48,0 L48,12 L56,12 L56,4 L52,4 L52,8 L48,8" />
        <path d="M64,0 L64,12 L72,12 L72,4 L68,4 L68,8 L64,8" />
      </g>
    </g>

    <!-- Greek meander border bottom -->
    <g opacity="0.18" stroke="#d4a05a" stroke-width="1.2" fill="none" transform="translate(0,256)">
      <path d="M0,16 L900,16"/>
      <path d="M0,28 L900,28"/>
      <g transform="translate(20,16)">
        <path d="M0,0 L0,12 L8,12 L8,4 L4,4 L4,8 L0,8" />
        <path d="M16,0 L16,12 L24,12 L24,4 L20,4 L20,8 L16,8" />
        <path d="M32,0 L32,12 L40,12 L40,4 L36,4 L36,8 L32,8" />
        <path d="M48,0 L48,12 L56,12 L56,4 L52,4 L52,8 L48,8" />
        <path d="M64,0 L64,12 L72,12 L72,4 L68,4 L68,8 L64,8" />
      </g>
      <g transform="translate(780,16) scale(-1,1)">
        <path d="M0,0 L0,12 L8,12 L8,4 L4,4 L4,8 L0,8" />
        <path d="M16,0 L16,12 L24,12 L24,4 L20,4 L20,8 L16,8" />
        <path d="M32,0 L32,12 L40,12 L40,4 L36,4 L36,8 L32,8" />
        <path d="M48,0 L48,12 L56,12 L56,4 L52,4 L52,8 L48,8" />
        <path d="M64,0 L64,12 L72,12 L72,4 L68,4 L68,8 L64,8" />
      </g>
    </g>

    <!-- Left decorative panel: Triskelion -->
    <g transform="translate(90, 130)" opacity="0.22" stroke="#d4a05a" fill="none" stroke-linecap="round">
      <!-- Three identical spiral arms, each rotated 120° -->
      <!-- Each arm: tight inner curl expanding outward -->
      <path d="M0,0 C-1,-5 2,-10 7,-10 C13,-10 16,-5 16,0 C16,8 10,15 2,15 C-8,15 -14,8 -14,0 C-14,-12 -5,-22 7,-22 C21,-22 30,-12 30,0 C30,16 18,28 2,28" stroke-width="1.8"/>
      <path d="M0,0 C-1,-5 2,-10 7,-10 C13,-10 16,-5 16,0 C16,8 10,15 2,15 C-8,15 -14,8 -14,0 C-14,-12 -5,-22 7,-22 C21,-22 30,-12 30,0 C30,16 18,28 2,28" stroke-width="1.8" transform="rotate(120)"/>
      <path d="M0,0 C-1,-5 2,-10 7,-10 C13,-10 16,-5 16,0 C16,8 10,15 2,15 C-8,15 -14,8 -14,0 C-14,-12 -5,-22 7,-22 C21,-22 30,-12 30,0 C30,16 18,28 2,28" stroke-width="1.8" transform="rotate(240)"/>
      <!-- Center dot -->
      <circle cx="0" cy="0" r="2.5" fill="#d4a05a" stroke="none" opacity="0.5"/>
      <!-- Outer ring -->
      <circle cx="0" cy="0" r="38" stroke-width="0.8" stroke-dasharray="4 6"/>
    </g>

    <!-- Right decorative panel: Rosette / Sun disc -->
    <g transform="translate(810, 130)" opacity="0.22">
      <!-- 8-petal rosette -->
      <circle cx="0" cy="0" r="5" fill="#d4a05a" opacity="0.3"/>
      <circle cx="0" cy="0" r="30" stroke="#d4a05a" stroke-width="1" fill="none"/>
      <g stroke="#d4a05a" stroke-width="1.5" fill="none">
        <ellipse cx="0" cy="-18" rx="7" ry="14" transform="rotate(0)"/>
        <ellipse cx="0" cy="-18" rx="7" ry="14" transform="rotate(45)"/>
        <ellipse cx="0" cy="-18" rx="7" ry="14" transform="rotate(90)"/>
        <ellipse cx="0" cy="-18" rx="7" ry="14" transform="rotate(135)"/>
        <ellipse cx="0" cy="-18" rx="7" ry="14" transform="rotate(180)"/>
        <ellipse cx="0" cy="-18" rx="7" ry="14" transform="rotate(225)"/>
        <ellipse cx="0" cy="-18" rx="7" ry="14" transform="rotate(270)"/>
        <ellipse cx="0" cy="-18" rx="7" ry="14" transform="rotate(315)"/>
      </g>
      <circle cx="0" cy="0" r="38" stroke="#d4a05a" stroke-width="0.8" fill="none" stroke-dasharray="3 5"/>
    </g>

    <!-- Left column: Chevrons / zigzag -->
    <g transform="translate(32, 50)" opacity="0.10" stroke="#d4a05a" stroke-width="1.2" fill="none">
      <path d="M0,0 L8,10 L16,0"/>
      <path d="M0,16 L8,26 L16,16"/>
      <path d="M0,32 L8,42 L16,32"/>
      <path d="M0,48 L8,58 L16,48"/>
      <path d="M0,64 L8,74 L16,64"/>
      <path d="M0,80 L8,90 L16,80"/>
      <path d="M0,96 L8,106 L16,96"/>
      <path d="M0,112 L8,122 L16,112"/>
      <path d="M0,128 L8,138 L16,128"/>
      <path d="M0,144 L8,154 L16,144"/>
      <path d="M0,160 L8,170 L16,160"/>
    </g>

    <!-- Right column: Chevrons / zigzag -->
    <g transform="translate(852, 50)" opacity="0.10" stroke="#d4a05a" stroke-width="1.2" fill="none">
      <path d="M0,0 L8,10 L16,0"/>
      <path d="M0,16 L8,26 L16,16"/>
      <path d="M0,32 L8,42 L16,32"/>
      <path d="M0,48 L8,58 L16,48"/>
      <path d="M0,64 L8,74 L16,64"/>
      <path d="M0,80 L8,90 L16,80"/>
      <path d="M0,96 L8,106 L16,96"/>
      <path d="M0,112 L8,122 L16,112"/>
      <path d="M0,128 L8,138 L16,128"/>
      <path d="M0,144 L8,154 L16,144"/>
      <path d="M0,160 L8,170 L16,160"/>
    </g>

    <!-- Scattered archaeological dots -->
    <g opacity="0.08" fill="#d4a05a">
      <circle cx="170" cy="60" r="1.5"/><circle cx="195" cy="78" r="1"/>
      <circle cx="220" cy="52" r="1.8"/><circle cx="260" cy="70" r="1.2"/>
      <circle cx="640" cy="58" r="1.5"/><circle cx="680" cy="72" r="1"/>
      <circle cx="720" cy="48" r="1.8"/><circle cx="745" cy="68" r="1.2"/>
      <circle cx="175" cy="220" r="1.2"/><circle cx="210" cy="235" r="1"/>
      <circle cx="690" cy="225" r="1.5"/><circle cx="730" cy="210" r="1"/>
    </g>

    <!-- Title ornament: left rule -->
    <g opacity="0.35">
      <line x1="170" y1="92" x2="330" y2="92" stroke="url(#goldV)" stroke-width="0.6"/>
      <line x1="200" y1="88" x2="200" y2="96" stroke="#d4a05a" stroke-width="0.6"/>
      <line x1="230" y1="88" x2="230" y2="96" stroke="#d4a05a" stroke-width="0.6"/>
      <line x1="260" y1="88" x2="260" y2="96" stroke="#d4a05a" stroke-width="0.6"/>
      <line x1="290" y1="88" x2="290" y2="96" stroke="#d4a05a" stroke-width="0.6"/>
      <circle cx="170" cy="92" r="2.5" fill="#d4a05a" opacity="0.5"/>
      <circle cx="330" cy="92" r="2.5" fill="#d4a05a" opacity="0.5"/>
    </g>
    <!-- Title ornament: right rule -->
    <g opacity="0.35">
      <line x1="570" y1="92" x2="730" y2="92" stroke="url(#goldV)" stroke-width="0.6"/>
      <line x1="610" y1="88" x2="610" y2="96" stroke="#d4a05a" stroke-width="0.6"/>
      <line x1="640" y1="88" x2="640" y2="96" stroke="#d4a05a" stroke-width="0.6"/>
      <line x1="670" y1="88" x2="670" y2="96" stroke="#d4a05a" stroke-width="0.6"/>
      <line x1="700" y1="88" x2="700" y2="96" stroke="#d4a05a" stroke-width="0.6"/>
      <circle cx="570" cy="92" r="2.5" fill="#d4a05a" opacity="0.5"/>
      <circle cx="730" cy="92" r="2.5" fill="#d4a05a" opacity="0.5"/>
    </g>

    <!-- Title -->
    <text x="450" y="100" text-anchor="middle" font-family="Georgia, 'Palatino Linotype', 'Book Antiqua', serif" font-size="46" font-weight="bold" fill="url(#gold)" letter-spacing="8">ANCIENT LOCS</text>

    <!-- Subtitle band -->
    <text x="450" y="128" text-anchor="middle" font-family="Georgia, 'Palatino Linotype', serif" font-size="13" fill="#d4a05a" opacity="0.55" letter-spacing="10" font-variant="small-caps">MOTIF ENCYCLOPEDIA</text>

    <!-- Thin divider with diamond -->
    <g opacity="0.3">
      <line x1="240" y1="148" x2="440" y2="148" stroke="#d4a05a" stroke-width="0.5"/>
      <rect x="445" y="143" width="10" height="10" transform="rotate(45 450 148)" fill="none" stroke="#d4a05a" stroke-width="0.8"/>
      <line x1="460" y1="148" x2="660" y2="148" stroke="#d4a05a" stroke-width="0.5"/>
    </g>

    <!-- Description -->
    <text x="450" y="175" text-anchor="middle" font-family="'Helvetica Neue', 'Segoe UI', Arial, sans-serif" font-size="14" fill="#c4a882" letter-spacing="0.8">Tracing decorative motifs across 8,860 ancient sites</text>

    <!-- Tech stack pills -->
    <g font-family="'SF Mono', 'Fira Code', 'Consolas', monospace" font-size="10" text-anchor="middle">
      <g transform="translate(300, 200)">
        <rect x="-52" y="-11" width="104" height="22" rx="11" fill="#d4a05a" opacity="0.08" stroke="#d4a05a" stroke-width="0.5" stroke-opacity="0.2"/>
        <text fill="#b8956a" letter-spacing="0.5">CLIPSeg</text>
      </g>
      <g transform="translate(450, 200)">
        <rect x="-60" y="-11" width="120" height="22" rx="11" fill="#d4a05a" opacity="0.08" stroke="#d4a05a" stroke-width="0.5" stroke-opacity="0.2"/>
        <text fill="#b8956a" letter-spacing="0.5">CLIP embeddings</text>
      </g>
      <g transform="translate(600, 200)">
        <rect x="-52" y="-11" width="104" height="22" rx="11" fill="#d4a05a" opacity="0.08" stroke="#d4a05a" stroke-width="0.5" stroke-opacity="0.2"/>
        <text fill="#b8956a" letter-spacing="0.5">HDBSCAN</text>
      </g>
    </g>

    <!-- Bottom motif labels -->
    <text x="90" y="248" text-anchor="middle" font-family="'SF Mono', 'Fira Code', 'Consolas', monospace" font-size="8" fill="#6b5040" letter-spacing="2">TRISKELION</text>
    <text x="810" y="248" text-anchor="middle" font-family="'SF Mono', 'Fira Code', 'Consolas', monospace" font-size="8" fill="#6b5040" letter-spacing="2">ROSETTE</text>

    <!-- Outer border -->
    <rect x="1" y="1" width="898" height="298" rx="7" stroke="#d4a05a" stroke-width="0.8" fill="none" opacity="0.15"/>
    <rect x="6" y="6" width="888" height="288" rx="5" stroke="#d4a05a" stroke-width="0.4" fill="none" opacity="0.10"/>
  </g>
</svg>
